{"asset":{"version":"2.0","generator":"Blockbench 4.1.1 glTF exporter"},"scenes":[{"nodes":[25],"name":"blockbench_export"}],"scene":0,"nodes":[{"translation":[0.73125,0.1640625,-1.39375],"name":"Base[delete]","mesh":0},{"name":"cube","mesh":1},{"name":"pyramid","mesh":2},{"name":"Tree","children":[1,2]},{"name":"cube","mesh":3},{"name":"pyramid","mesh":4},{"name":"Tree2","children":[4,5]},{"name":"cube","mesh":5},{"name":"pyramid","mesh":6},{"name":"Tree3","children":[7,8]},{"name":"cube","mesh":7},{"name":"pyramid","mesh":8},{"name":"Tree4","children":[10,11]},{"name":"cube","mesh":9},{"name":"pyramid","mesh":10},{"name":"Tree5","children":[13,14]},{"name":"cube","mesh":11},{"name":"pyramid","mesh":12},{"name":"Tree6","children":[16,17]},{"name":"cube","mesh":13},{"name":"pyramid","mesh":14},{"name":"Tree7","children":[19,20]},{"name":"cube","mesh":15},{"name":"pyramid","mesh":16},{"name":"Tree8","children":[22,23]},{"children":[0,3,6,9,12,15,18,21,24]}],"bufferViews":[{"buffer":0,"byteOffset":0,"byteLength":288,"target":34962,"byteStride":12},{"buffer":0,"byteOffset":288,"byteLength":288,"target":34962,"byteStride":12},{"buffer":0,"byteOffset":576,"byteLength":192,"target":34962,"byteStride":8},{"buffer":0,"byteOffset":768,"byteLength":72,"target":34963},{"buffer":0,"byteOffset":840,"byteLength":288,"target":34962,"byteStride":12},{"buffer":0,"byteOffset":1128,"byteLength":288,"target":34962,"byteStride":12},{"buffer":0,"byteOffset":1416,"byteLength":192,"target":34962,"byteStride":8},{"buffer":0,"byteOffset":1608,"byteLength":72,"target":34963},{"buffer":0,"byteOffset":1680,"byteLength":192,"target":34962,"byteStride":12},{"buffer":0,"byteOffset":1872,"byteLength":192,"target":34962,"byteStride":12},{"buffer":0,"byteOffset":2064,"byteLength":128,"target":34962,"byteStride":8},{"buffer":0,"byteOffset":2192,"byteLength":36,"target":34963},{"buffer":0,"byteOffset":2228,"byteLength":288,"target":34962,"byteStride":12},{"buffer":0,"byteOffset":2516,"byteLength":288,"target":34962,"byteStride":12},{"buffer":0,"byteOffset":2804,"byteLength":192,"target":34962,"byteStride":8},{"buffer":0,"byteOffset":2996,"byteLength":72,"target":34963},{"buffer":0,"byteOffset":3068,"byteLength":192,"target":34962,"byteStride":12},{"buffer":0,"byteOffset":3260,"byteLength":192,"target":34962,"byteStride":12},{"buffer":0,"byteOffset":3452,"byteLength":128,"target":34962,"byteStride":8},{"buffer":0,"byteOffset":3580,"byteLength":36,"target":34963},{"buffer":0,"byteOffset":3616,"byteLength":288,"target":34962,"byteStride":12},{"buffer":0,"byteOffset":3904,"byteLength":288,"target":34962,"byteStride":12},{"buffer":0,"byteOffset":4192,"byteLength":192,"target":34962,"byteStride":8},{"buffer":0,"byteOffset":4384,"byteLength":72,"target":34963},{"buffer":0,"byteOffset":4456,"byteLength":192,"target":34962,"byteStride":12},{"buffer":0,"byteOffset":4648,"byteLength":192,"target":34962,"byteStride":12},{"buffer":0,"byteOffset":4840,"byteLength":128,"target":34962,"byteStride":8},{"buffer":0,"byteOffset":4968,"byteLength":36,"target":34963},{"buffer":0,"byteOffset":5004,"byteLength":288,"target":34962,"byteStride":12},{"buffer":0,"byteOffset":5292,"byteLength":288,"target":34962,"byteStride":12},{"buffer":0,"byteOffset":5580,"byteLength":192,"target":34962,"byteStride":8},{"buffer":0,"byteOffset":5772,"byteLength":72,"target":34963},{"buffer":0,"byteOffset":5844,"byteLength":192,"target":34962,"byteStride":12},{"buffer":0,"byteOffset":6036,"byteLength":192,"target":34962,"byteStride":12},{"buffer":0,"byteOffset":6228,"byteLength":128,"target":34962,"byteStride":8},{"buffer":0,"byteOffset":6356,"byteLength":36,"target":34963},{"buffer":0,"byteOffset":6392,"byteLength":288,"target":34962,"byteStride":12},{"buffer":0,"byteOffset":6680,"byteLength":288,"target":34962,"byteStride":12},{"buffer":0,"byteOffset":6968,"byteLength":192,"target":34962,"byteStride":8},{"buffer":0,"byteOffset":7160,"byteLength":72,"target":34963},{"buffer":0,"byteOffset":7232,"byteLength":192,"target":34962,"byteStride":12},{"buffer":0,"byteOffset":7424,"byteLength":192,"target":34962,"byteStride":12},{"buffer":0,"byteOffset":7616,"byteLength":128,"target":34962,"byteStride":8},{"buffer":0,"byteOffset":7744,"byteLength":36,"target":34963},{"buffer":0,"byteOffset":7780,"byteLength":288,"target":34962,"byteStride":12},{"buffer":0,"byteOffset":8068,"byteLength":288,"target":34962,"byteStride":12},{"buffer":0,"byteOffset":8356,"byteLength":192,"target":34962,"byteStride":8},{"buffer":0,"byteOffset":8548,"byteLength":72,"target":34963},{"buffer":0,"byteOffset":8620,"byteLength":192,"target":34962,"byteStride":12},{"buffer":0,"byteOffset":8812,"byteLength":192,"target":34962,"byteStride":12},{"buffer":0,"byteOffset":9004,"byteLength":128,"target":34962,"byteStride":8},{"buffer":0,"byteOffset":9132,"byteLength":36,"target":34963},{"buffer":0,"byteOffset":9168,"byteLength":288,"target":34962,"byteStride":12},{"buffer":0,"byteOffset":9456,"byteLength":288,"target":34962,"byteStride":12},{"buffer":0,"byteOffset":9744,"byteLength":192,"target":34962,"byteStride":8},{"buffer":0,"byteOffset":9936,"byteLength":72,"target":34963},{"buffer":0,"byteOffset":10008,"byteLength":192,"target":34962,"byteStride":12},{"buffer":0,"byteOffset":10200,"byteLength":192,"target":34962,"byteStride":12},{"buffer":0,"byteOffset":10392,"byteLength":128,"target":34962,"byteStride":8},{"buffer":0,"byteOffset":10520,"byteLength":36,"target":34963},{"buffer":0,"byteOffset":10556,"byteLength":288,"target":34962,"byteStride":12},{"buffer":0,"byteOffset":10844,"byteLength":288,"target":34962,"byteStride":12},{"buffer":0,"byteOffset":11132,"byteLength":192,"target":34962,"byteStride":8},{"buffer":0,"byteOffset":11324,"byteLength":72,"target":34963},{"buffer":0,"byteOffset":11396,"byteLength":192,"target":34962,"byteStride":12},{"buffer":0,"byteOffset":11588,"byteLength":192,"target":34962,"byteStride":12},{"buffer":0,"byteOffset":11780,"byteLength":128,"target":34962,"byteStride":8},{"buffer":0,"byteOffset":11908,"byteLength":36,"target":34963}],"buffers":[{"byteLength":11944,"uri":"data:application/octet-stream;base64,"}],"accessors":[{"bufferView":0,"componentType":5126,"count":24,"max":[1.2687499523162842,-0.164000004529953,1.3937499523162842],"min":[-0.731249988079071,-0.1640625,-0.606249988079071],"type":"VEC3"},{"bufferView":1,"componentType":5126,"count":24,"max":[1,1,1],"min":[-1,-1,-1],"type":"VEC3"},{"bufferView":2,"componentType":5126,"count":24,"max":[2,1],"min":[0,-3],"type":"VEC2"},{"bufferView":3,"componentType":5123,"count":36,"max":[23],"min":[0],"type":"SCALAR"},{"bufferView":4,"componentType":5126,"count":24,"max":[0.21875,0.125,-0.21875],"min":[0.15625,0,-0.28125],"type":"VEC3"},{"bufferView":5,"componentType":5126,"count":24,"max":[1,1,1],"min":[-1,-1,-1],"type":"VEC3"},{"bufferView":6,"componentType":5126,"count":24,"max":[0.5625,0.625],"min":[0.375,0.375],"type":"VEC2"},{"bufferView":7,"componentType":5123,"count":36,"max":[23],"min":[0],"type":"SCALAR"},{"bufferView":8,"componentType":5126,"count":16,"max":[0.28125,0.4375,-0.15625],"min":[0.09375,0.125,-0.34375],"type":"VEC3"},{"bufferView":9,"componentType":5126,"count":16,"max":[0.9578262567520142,0.2873478829860687,0.9578262567520142],"min":[-0.9578262567520142,-1,-0.9578262567520142],"type":"VEC3"},{"bufferView":10,"componentType":5126,"count":16,"max":[0.1875,1],"min":[0,0.673743724822998],"type":"VEC2"},{"bufferView":11,"componentType":5123,"count":18,"max":[15],"min":[0],"type":"SCALAR"},{"bufferView":12,"componentType":5126,"count":24,"max":[0.65625,0.125,-0.65625],"min":[0.59375,0,-0.71875],"type":"VEC3"},{"bufferView":13,"componentType":5126,"count":24,"max":[1,1,1],"min":[-1,-1,-1],"type":"VEC3"},{"bufferView":14,"componentType":5126,"count":24,"max":[0.5625,0.625],"min":[0.375,0.375],"type":"VEC2"},{"bufferView":15,"componentType":5123,"count":36,"max":[23],"min":[0],"type":"SCALAR"},{"bufferView":16,"componentType":5126,"count":16,"max":[0.71875,0.4375,-0.59375],"min":[0.53125,0.125,-0.78125],"type":"VEC3"},{"bufferView":17,"componentType":5126,"count":16,"max":[0.9578262567520142,0.2873478829860687,0.9578262567520142],"min":[-0.9578262567520142,-1,-0.9578262567520142],"type":"VEC3"},{"bufferView":18,"componentType":5126,"count":16,"max":[0.1875,1],"min":[0,0.673743724822998],"type":"VEC2"},{"bufferView":19,"componentType":5123,"count":18,"max":[15],"min":[0],"type":"SCALAR"},{"bufferView":20,"componentType":5126,"count":24,"max":[1.03125,0.125,-0.40625],"min":[0.96875,0,-0.46875],"type":"VEC3"},{"bufferView":21,"componentType":5126,"count":24,"max":[1,1,1],"min":[-1,-1,-1],"type":"VEC3"},{"bufferView":22,"componentType":5126,"count":24,"max":[0.5625,0.625],"min":[0.375,0.375],"type":"VEC2"},{"bufferView":23,"componentType":5123,"count":36,"max":[23],"min":[0],"type":"SCALAR"},{"bufferView":24,"componentType":5126,"count":16,"max":[1.09375,0.4375,-0.34375],"min":[0.90625,0.125,-0.53125],"type":"VEC3"},{"bufferView":25,"componentType":5126,"count":16,"max":[0.9578262567520142,0.2873478829860687,0.9578262567520142],"min":[-0.9578262567520142,-1,-0.9578262567520142],"type":"VEC3"},{"bufferView":26,"componentType":5126,"count":16,"max":[0.1875,1],"min":[0,0.673743724822998],"type":"VEC2"},{"bufferView":27,"componentType":5123,"count":18,"max":[15],"min":[0],"type":"SCALAR"},{"bufferView":28,"componentType":5126,"count":24,"max":[0.40625,0.125,-0.90625],"min":[0.34375,0,-0.96875],"type":"VEC3"},{"bufferView":29,"componentType":5126,"count":24,"max":[1,1,1],"min":[-1,-1,-1],"type":"VEC3"},{"bufferView":30,"componentType":5126,"count":24,"max":[0.5625,0.625],"min":[0.375,0.375],"type":"VEC2"},{"bufferView":31,"componentType":5123,"count":36,"max":[23],"min":[0],"type":"SCALAR"},{"bufferView":32,"componentType":5126,"count":16,"max":[0.46875,0.4375,-0.84375],"min":[0.28125,0.125,-1.03125],"type":"VEC3"},{"bufferView":33,"componentType":5126,"count":16,"max":[0.9578262567520142,0.2873478829860687,0.9578262567520142],"min":[-0.9578262567520142,-1,-0.9578262567520142],"type":"VEC3"},{"bufferView":34,"componentType":5126,"count":16,"max":[0.1875,1],"min":[0,0.673743724822998],"type":"VEC2"},{"bufferView":35,"componentType":5123,"count":18,"max":[15],"min":[0],"type":"SCALAR"},{"bufferView":36,"componentType":5126,"count":24,"max":[0.21875,0.125,-1.46875],"min":[0.15625,0,-1.53125],"type":"VEC3"},{"bufferView":37,"componentType":5126,"count":24,"max":[1,1,1],"min":[-1,-1,-1],"type":"VEC3"},{"bufferView":38,"componentType":5126,"count":24,"max":[0.5625,0.625],"min":[0.375,0.375],"type":"VEC2"},{"bufferView":39,"componentType":5123,"count":36,"max":[23],"min":[0],"type":"SCALAR"},{"bufferView":40,"componentType":5126,"count":16,"max":[0.28125,0.4375,-1.40625],"min":[0.09375,0.125,-1.59375],"type":"VEC3"},{"bufferView":41,"componentType":5126,"count":16,"max":[0.9578262567520142,0.2873478829860687,0.9578262567520142],"min":[-0.9578262567520142,-1,-0.9578262567520142],"type":"VEC3"},{"bufferView":42,"componentType":5126,"count":16,"max":[0.1875,1],"min":[0,0.673743724822998],"type":"VEC2"},{"bufferView":43,"componentType":5123,"count":18,"max":[15],"min":[0],"type":"SCALAR"},{"bufferView":44,"componentType":5126,"count":24,"max":[1.53125,0.125,-1.21875],"min":[1.46875,0,-1.28125],"type":"VEC3"},{"bufferView":45,"componentType":5126,"count":24,"max":[1,1,1],"min":[-1,-1,-1],"type":"VEC3"},{"bufferView":46,"componentType":5126,"count":24,"max":[0.5625,0.625],"min":[0.375,0.375],"type":"VEC2"},{"bufferView":47,"componentType":5123,"count":36,"max":[23],"min":[0],"type":"SCALAR"},{"bufferView":48,"componentType":5126,"count":16,"max":[1.59375,0.4375,-1.15625],"min":[1.40625,0.125,-1.34375],"type":"VEC3"},{"bufferView":49,"componentType":5126,"count":16,"max":[0.9578262567520142,0.2873478829860687,0.9578262567520142],"min":[-0.9578262567520142,-1,-0.9578262567520142],"type":"VEC3"},{"bufferView":50,"componentType":5126,"count":16,"max":[0.1875,1],"min":[0,0.673743724822998],"type":"VEC2"},{"bufferView":51,"componentType":5123,"count":18,"max":[15],"min":[0],"type":"SCALAR"},{"bufferView":52,"componentType":5126,"count":24,"max":[1.59375,0.125,-0.28125],"min":[1.53125,0,-0.34375],"type":"VEC3"},{"bufferView":53,"componentType":5126,"count":24,"max":[1,1,1],"min":[-1,-1,-1],"type":"VEC3"},{"bufferView":54,"componentType":5126,"count":24,"max":[0.5625,0.625],"min":[0.375,0.375],"type":"VEC2"},{"bufferView":55,"componentType":5123,"count":36,"max":[23],"min":[0],"type":"SCALAR"},{"bufferView":56,"componentType":5126,"count":16,"max":[1.65625,0.4375,-0.21875],"min":[1.46875,0.125,-0.40625],"type":"VEC3"},{"bufferView":57,"componentType":5126,"count":16,"max":[0.9578262567520142,0.2873478829860687,0.9578262567520142],"min":[-0.9578262567520142,-1,-0.9578262567520142],"type":"VEC3"},{"bufferView":58,"componentType":5126,"count":16,"max":[0.1875,1],"min":[0,0.673743724822998],"type":"VEC2"},{"bufferView":59,"componentType":5123,"count":18,"max":[15],"min":[0],"type":"SCALAR"},{"bufferView":60,"componentType":5126,"count":24,"max":[0.90625,0.125,-1.53125],"min":[0.84375,0,-1.59375],"type":"VEC3"},{"bufferView":61,"componentType":5126,"count":24,"max":[1,1,1],"min":[-1,-1,-1],"type":"VEC3"},{"bufferView":62,"componentType":5126,"count":24,"max":[0.5625,0.625],"min":[0.375,0.375],"type":"VEC2"},{"bufferView":63,"componentType":5123,"count":36,"max":[23],"min":[0],"type":"SCALAR"},{"bufferView":64,"componentType":5126,"count":16,"max":[0.96875,0.4375,-1.46875],"min":[0.78125,0.125,-1.65625],"type":"VEC3"},{"bufferView":65,"componentType":5126,"count":16,"max":[0.9578262567520142,0.2873478829860687,0.9578262567520142],"min":[-0.9578262567520142,-1,-0.9578262567520142],"type":"VEC3"},{"bufferView":66,"componentType":5126,"count":16,"max":[0.5625,1],"min":[0,0.298737496137619],"type":"VEC2"},{"bufferView":67,"componentType":5123,"count":18,"max":[15],"min":[0],"type":"SCALAR"}],"materials":[{"pbrMetallicRoughness":{"metallicFactor":0,"roughnessFactor":1,"baseColorTexture":{"index":0}},"alphaMode":"MASK","alphaCutoff":0.05,"doubleSided":true}],"textures":[{"sampler":0,"source":0,"name":"tree"}],"samplers":[{"magFilter":9728,"minFilter":9728,"wrapS":33071,"wrapT":33071}],"images":[{"mimeType":"image/png","uri":"data:image/png;base64,"}],"meshes":[{"primitives":[{"mode":4,"attributes":{"POSITION":0,"NORMAL":1,"TEXCOORD_0":2},"indices":3,"material":0}]},{"primitives":[{"mode":4,"attributes":{"POSITION":4,"NORMAL":5,"TEXCOORD_0":6},"indices":7,"material":0}]},{"primitives":[{"mode":4,"attributes":{"POSITION":8,"NORMAL":9,"TEXCOORD_0":10},"indices":11,"material":0}]},{"primitives":[{"mode":4,"attributes":{"POSITION":12,"NORMAL":13,"TEXCOORD_0":14},"indices":15,"material":0}]},{"primitives":[{"mode":4,"attributes":{"POSITION":16,"NORMAL":17,"TEXCOORD_0":18},"indices":19,"material":0}]},{"primitives":[{"mode":4,"attributes":{"POSITION":20,"NORMAL":21,"TEXCOORD_0":22},"indices":23,"material":0}]},{"primitives":[{"mode":4,"attributes":{"POSITION":24,"NORMAL":25,"TEXCOORD_0":26},"indices":27,"material":0}]},{"primitives":[{"mode":4,"attributes":{"POSITION":28,"NORMAL":29,"TEXCOORD_0":30},"indices":31,"material":0}]},{"primitives":[{"mode":4,"attributes":{"POSITION":32,"NORMAL":33,"TEXCOORD_0":34},"indices":35,"material":0}]},{"primitives":[{"mode":4,"attributes":{"POSITION":36,"NORMAL":37,"TEXCOORD_0":38},"indices":39,"material":0}]},{"primitives":[{"mode":4,"attributes":{"POSITION":40,"NORMAL":41,"TEXCOORD_0":42},"indices":43,"material":0}]},{"primitives":[{"mode":4,"attributes":{"POSITION":44,"NORMAL":45,"TEXCOORD_0":46},"indices":47,"material":0}]},{"primitives":[{"mode":4,"attributes":{"POSITION":48,"NORMAL":49,"TEXCOORD_0":50},"indices":51,"material":0}]},{"primitives":[{"mode":4,"attributes":{"POSITION":52,"NORMAL":53,"TEXCOORD_0":54},"indices":55,"material":0}]},{"primitives":[{"mode":4,"attributes":{"POSITION":56,"NORMAL":57,"TEXCOORD_0":58},"indices":59,"material":0}]},{"primitives":[{"mode":4,"attributes":{"POSITION":60,"NORMAL":61,"TEXCOORD_0":62},"indices":63,"material":0}]},{"primitives":[{"mode":4,"attributes":{"POSITION":64,"NORMAL":65,"TEXCOORD_0":66},"indices":67,"material":0}]}]}