{"asset":{"version":"2.0","generator":"Blockbench 4.1.3 glTF exporter"},"scenes":[{"nodes":[23],"name":"blockbench_export"}],"scene":0,"nodes":[{"name":"Tree Trunk","mesh":0},{"translation":[0.21875,0.25,-0.28125],"name":"pyramid","mesh":1},{"translation":[0.3125,0,-0.5],"name":"Tree Trunk","mesh":2},{"translation":[0.53125,0.25,-0.78125],"name":"pyramid","mesh":3},{"translation":[0.1875,0,-1.125],"name":"Tree Trunk","mesh":4},{"translation":[0.40625,0.25,-1.40625],"name":"pyramid","mesh":5},{"translation":[0.5625,0,-0.0625],"name":"Tree Trunk","mesh":6},{"translation":[0.78125,0.25,-0.34375],"name":"pyramid","mesh":7},{"translation":[0.75,0,-0.875],"name":"Tree Trunk","mesh":8},{"translation":[0.96875,0.25,-1.15625],"name":"pyramid","mesh":9},{"translation":[1.0625,0,0.1875],"name":"Tree Trunk","mesh":10},{"translation":[1.28125,0.25,-0.09375],"name":"pyramid","mesh":11},{"translation":[0.9375,0,-0.5],"name":"Tree Trunk","mesh":12},{"translation":[1.15625,0.25,-0.78125],"name":"pyramid","mesh":13},{"translation":[1.1875,0,-1.3125],"name":"Tree Trunk","mesh":14},{"translation":[1.40625,0.25,-1.59375],"name":"pyramid","mesh":15},{"translation":[1.4375,0,-0.9375],"name":"Tree Trunk","mesh":16},{"translation":[1.65625,0.25,-1.21875],"name":"pyramid","mesh":17},{"translation":[1.5625,0,-0.3125],"name":"Tree Trunk","mesh":18},{"translation":[1.78125,0.25,-0.59375],"name":"pyramid","mesh":19},{"translation":[0.5,0,-1.375],"name":"Tree Trunk","mesh":20},{"translation":[0.71875,0.25,-1.65625],"name":"pyramid","mesh":21},{"name":"plane","mesh":22},{"children":[0,1,2,3,4,5,6,7,8,9,10,11,12,13,14,15,16,17,18,19,20,21,22]}],"bufferViews":[{"buffer":0,"byteOffset":0,"byteLength":288,"target":34962,"byteStride":12},{"buffer":0,"byteOffset":288,"byteLength":288,"target":34962,"byteStride":12},{"buffer":0,"byteOffset":576,"byteLength":192,"target":34962,"byteStride":8},{"buffer":0,"byteOffset":768,"byteLength":72,"target":34963},{"buffer":0,"byteOffset":840,"byteLength":192,"target":34962,"byteStride":12},{"buffer":0,"byteOffset":1032,"byteLength":192,"target":34962,"byteStride":12},{"buffer":0,"byteOffset":1224,"byteLength":128,"target":34962,"byteStride":8},{"buffer":0,"byteOffset":1352,"byteLength":36,"target":34963},{"buffer":0,"byteOffset":1388,"byteLength":288,"target":34962,"byteStride":12},{"buffer":0,"byteOffset":1676,"byteLength":288,"target":34962,"byteStride":12},{"buffer":0,"byteOffset":1964,"byteLength":192,"target":34962,"byteStride":8},{"buffer":0,"byteOffset":2156,"byteLength":72,"target":34963},{"buffer":0,"byteOffset":2228,"byteLength":192,"target":34962,"byteStride":12},{"buffer":0,"byteOffset":2420,"byteLength":192,"target":34962,"byteStride":12},{"buffer":0,"byteOffset":2612,"byteLength":128,"target":34962,"byteStride":8},{"buffer":0,"byteOffset":2740,"byteLength":36,"target":34963},{"buffer":0,"byteOffset":2776,"byteLength":288,"target":34962,"byteStride":12},{"buffer":0,"byteOffset":3064,"byteLength":288,"target":34962,"byteStride":12},{"buffer":0,"byteOffset":3352,"byteLength":192,"target":34962,"byteStride":8},{"buffer":0,"byteOffset":3544,"byteLength":72,"target":34963},{"buffer":0,"byteOffset":3616,"byteLength":192,"target":34962,"byteStride":12},{"buffer":0,"byteOffset":3808,"byteLength":192,"target":34962,"byteStride":12},{"buffer":0,"byteOffset":4000,"byteLength":128,"target":34962,"byteStride":8},{"buffer":0,"byteOffset":4128,"byteLength":36,"target":34963},{"buffer":0,"byteOffset":4164,"byteLength":288,"target":34962,"byteStride":12},{"buffer":0,"byteOffset":4452,"byteLength":288,"target":34962,"byteStride":12},{"buffer":0,"byteOffset":4740,"byteLength":192,"target":34962,"byteStride":8},{"buffer":0,"byteOffset":4932,"byteLength":72,"target":34963},{"buffer":0,"byteOffset":5004,"byteLength":192,"target":34962,"byteStride":12},{"buffer":0,"byteOffset":5196,"byteLength":192,"target":34962,"byteStride":12},{"buffer":0,"byteOffset":5388,"byteLength":128,"target":34962,"byteStride":8},{"buffer":0,"byteOffset":5516,"byteLength":36,"target":34963},{"buffer":0,"byteOffset":5552,"byteLength":288,"target":34962,"byteStride":12},{"buffer":0,"byteOffset":5840,"byteLength":288,"target":34962,"byteStride":12},{"buffer":0,"byteOffset":6128,"byteLength":192,"target":34962,"byteStride":8},{"buffer":0,"byteOffset":6320,"byteLength":72,"target":34963},{"buffer":0,"byteOffset":6392,"byteLength":192,"target":34962,"byteStride":12},{"buffer":0,"byteOffset":6584,"byteLength":192,"target":34962,"byteStride":12},{"buffer":0,"byteOffset":6776,"byteLength":128,"target":34962,"byteStride":8},{"buffer":0,"byteOffset":6904,"byteLength":36,"target":34963},{"buffer":0,"byteOffset":6940,"byteLength":288,"target":34962,"byteStride":12},{"buffer":0,"byteOffset":7228,"byteLength":288,"target":34962,"byteStride":12},{"buffer":0,"byteOffset":7516,"byteLength":192,"target":34962,"byteStride":8},{"buffer":0,"byteOffset":7708,"byteLength":72,"target":34963},{"buffer":0,"byteOffset":7780,"byteLength":192,"target":34962,"byteStride":12},{"buffer":0,"byteOffset":7972,"byteLength":192,"target":34962,"byteStride":12},{"buffer":0,"byteOffset":8164,"byteLength":128,"target":34962,"byteStride":8},{"buffer":0,"byteOffset":8292,"byteLength":36,"target":34963},{"buffer":0,"byteOffset":8328,"byteLength":288,"target":34962,"byteStride":12},{"buffer":0,"byteOffset":8616,"byteLength":288,"target":34962,"byteStride":12},{"buffer":0,"byteOffset":8904,"byteLength":192,"target":34962,"byteStride":8},{"buffer":0,"byteOffset":9096,"byteLength":72,"target":34963},{"buffer":0,"byteOffset":9168,"byteLength":192,"target":34962,"byteStride":12},{"buffer":0,"byteOffset":9360,"byteLength":192,"target":34962,"byteStride":12},{"buffer":0,"byteOffset":9552,"byteLength":128,"target":34962,"byteStride":8},{"buffer":0,"byteOffset":9680,"byteLength":36,"target":34963},{"buffer":0,"byteOffset":9716,"byteLength":288,"target":34962,"byteStride":12},{"buffer":0,"byteOffset":10004,"byteLength":288,"target":34962,"byteStride":12},{"buffer":0,"byteOffset":10292,"byteLength":192,"target":34962,"byteStride":8},{"buffer":0,"byteOffset":10484,"byteLength":72,"target":34963},{"buffer":0,"byteOffset":10556,"byteLength":192,"target":34962,"byteStride":12},{"buffer":0,"byteOffset":10748,"byteLength":192,"target":34962,"byteStride":12},{"buffer":0,"byteOffset":10940,"byteLength":128,"target":34962,"byteStride":8},{"buffer":0,"byteOffset":11068,"byteLength":36,"target":34963},{"buffer":0,"byteOffset":11104,"byteLength":288,"target":34962,"byteStride":12},{"buffer":0,"byteOffset":11392,"byteLength":288,"target":34962,"byteStride":12},{"buffer":0,"byteOffset":11680,"byteLength":192,"target":34962,"byteStride":8},{"buffer":0,"byteOffset":11872,"byteLength":72,"target":34963},{"buffer":0,"byteOffset":11944,"byteLength":192,"target":34962,"byteStride":12},{"buffer":0,"byteOffset":12136,"byteLength":192,"target":34962,"byteStride":12},{"buffer":0,"byteOffset":12328,"byteLength":128,"target":34962,"byteStride":8},{"buffer":0,"byteOffset":12456,"byteLength":36,"target":34963},{"buffer":0,"byteOffset":12492,"byteLength":288,"target":34962,"byteStride":12},{"buffer":0,"byteOffset":12780,"byteLength":288,"target":34962,"byteStride":12},{"buffer":0,"byteOffset":13068,"byteLength":192,"target":34962,"byteStride":8},{"buffer":0,"byteOffset":13260,"byteLength":72,"target":34963},{"buffer":0,"byteOffset":13332,"byteLength":192,"target":34962,"byteStride":12},{"buffer":0,"byteOffset":13524,"byteLength":192,"target":34962,"byteStride":12},{"buffer":0,"byteOffset":13716,"byteLength":128,"target":34962,"byteStride":8},{"buffer":0,"byteOffset":13844,"byteLength":36,"target":34963},{"buffer":0,"byteOffset":13880,"byteLength":288,"target":34962,"byteStride":12},{"buffer":0,"byteOffset":14168,"byteLength":288,"target":34962,"byteStride":12},{"buffer":0,"byteOffset":14456,"byteLength":192,"target":34962,"byteStride":8},{"buffer":0,"byteOffset":14648,"byteLength":72,"target":34963},{"buffer":0,"byteOffset":14720,"byteLength":192,"target":34962,"byteStride":12},{"buffer":0,"byteOffset":14912,"byteLength":192,"target":34962,"byteStride":12},{"buffer":0,"byteOffset":15104,"byteLength":128,"target":34962,"byteStride":8},{"buffer":0,"byteOffset":15232,"byteLength":36,"target":34963},{"buffer":0,"byteOffset":15268,"byteLength":48,"target":34962,"byteStride":12},{"buffer":0,"byteOffset":15316,"byteLength":48,"target":34962,"byteStride":12},{"buffer":0,"byteOffset":15364,"byteLength":32,"target":34962,"byteStride":8},{"buffer":0,"byteOffset":15396,"byteLength":12,"target":34963}],"buffers":[{"byteLength":15408,"uri":"data:application/octet-stream;base64,"}],"accessors":[{"bufferView":0,"componentType":5126,"count":24,"max":[0.25,0.1875,-0.25],"min":[0.1875,0,-0.3125],"type":"VEC3"},{"bufferView":1,"componentType":5126,"count":24,"max":[1,1,1],"min":[-1,-1,-1],"type":"VEC3"},{"bufferView":2,"componentType":5126,"count":24,"max":[0.33984375,0.71875],"min":[0.322265625,0.6875],"type":"VEC2"},{"bufferView":3,"componentType":5123,"count":36,"max":[23],"min":[0],"type":"SCALAR"},{"bufferView":4,"componentType":5126,"count":16,"max":[0.09375,0.25,0.09375],"min":[-0.09375,-0.0625,-0.09375],"type":"VEC3"},{"bufferView":5,"componentType":5126,"count":16,"max":[0.9578262567520142,0.2873478829860687,0.9578262567520142],"min":[-0.9578262567520142,-1,-0.9578262567520142],"type":"VEC3"},{"bufferView":6,"componentType":5126,"count":16,"max":[0.390625,0.921875],"min":[0.3359375,0.86328125],"type":"VEC2"},{"bufferView":7,"componentType":5123,"count":18,"max":[15],"min":[0],"type":"SCALAR"},{"bufferView":8,"componentType":5126,"count":24,"max":[0.25,0.1875,-0.25],"min":[0.1875,0,-0.3125],"type":"VEC3"},{"bufferView":9,"componentType":5126,"count":24,"max":[1,1,1],"min":[-1,-1,-1],"type":"VEC3"},{"bufferView":10,"componentType":5126,"count":24,"max":[0.33984375,0.71875],"min":[0.322265625,0.6875],"type":"VEC2"},{"bufferView":11,"componentType":5123,"count":36,"max":[23],"min":[0],"type":"SCALAR"},{"bufferView":12,"componentType":5126,"count":16,"max":[0.09375,0.25,0.09375],"min":[-0.09375,-0.0625,-0.09375],"type":"VEC3"},{"bufferView":13,"componentType":5126,"count":16,"max":[0.9578262567520142,0.2873478829860687,0.9578262567520142],"min":[-0.9578262567520142,-1,-0.9578262567520142],"type":"VEC3"},{"bufferView":14,"componentType":5126,"count":16,"max":[0.390625,0.921875],"min":[0.3359375,0.86328125],"type":"VEC2"},{"bufferView":15,"componentType":5123,"count":18,"max":[15],"min":[0],"type":"SCALAR"},{"bufferView":16,"componentType":5126,"count":24,"max":[0.25,0.1875,-0.25],"min":[0.1875,0,-0.3125],"type":"VEC3"},{"bufferView":17,"componentType":5126,"count":24,"max":[1,1,1],"min":[-1,-1,-1],"type":"VEC3"},{"bufferView":18,"componentType":5126,"count":24,"max":[0.33984375,0.71875],"min":[0.322265625,0.6875],"type":"VEC2"},{"bufferView":19,"componentType":5123,"count":36,"max":[23],"min":[0],"type":"SCALAR"},{"bufferView":20,"componentType":5126,"count":16,"max":[0.09375,0.25,0.09375],"min":[-0.09375,-0.0625,-0.09375],"type":"VEC3"},{"bufferView":21,"componentType":5126,"count":16,"max":[0.9578262567520142,0.2873478829860687,0.9578262567520142],"min":[-0.9578262567520142,-1,-0.9578262567520142],"type":"VEC3"},{"bufferView":22,"componentType":5126,"count":16,"max":[0.390625,0.921875],"min":[0.3359375,0.86328125],"type":"VEC2"},{"bufferView":23,"componentType":5123,"count":18,"max":[15],"min":[0],"type":"SCALAR"},{"bufferView":24,"componentType":5126,"count":24,"max":[0.25,0.1875,-0.25],"min":[0.1875,0,-0.3125],"type":"VEC3"},{"bufferView":25,"componentType":5126,"count":24,"max":[1,1,1],"min":[-1,-1,-1],"type":"VEC3"},{"bufferView":26,"componentType":5126,"count":24,"max":[0.33984375,0.71875],"min":[0.322265625,0.6875],"type":"VEC2"},{"bufferView":27,"componentType":5123,"count":36,"max":[23],"min":[0],"type":"SCALAR"},{"bufferView":28,"componentType":5126,"count":16,"max":[0.09375,0.25,0.09375],"min":[-0.09375,-0.0625,-0.09375],"type":"VEC3"},{"bufferView":29,"componentType":5126,"count":16,"max":[0.9578262567520142,0.2873478829860687,0.9578262567520142],"min":[-0.9578262567520142,-1,-0.9578262567520142],"type":"VEC3"},{"bufferView":30,"componentType":5126,"count":16,"max":[0.390625,0.921875],"min":[0.3359375,0.86328125],"type":"VEC2"},{"bufferView":31,"componentType":5123,"count":18,"max":[15],"min":[0],"type":"SCALAR"},{"bufferView":32,"componentType":5126,"count":24,"max":[0.25,0.1875,-0.25],"min":[0.1875,0,-0.3125],"type":"VEC3"},{"bufferView":33,"componentType":5126,"count":24,"max":[1,1,1],"min":[-1,-1,-1],"type":"VEC3"},{"bufferView":34,"componentType":5126,"count":24,"max":[0.33984375,0.71875],"min":[0.322265625,0.6875],"type":"VEC2"},{"bufferView":35,"componentType":5123,"count":36,"max":[23],"min":[0],"type":"SCALAR"},{"bufferView":36,"componentType":5126,"count":16,"max":[0.09375,0.25,0.09375],"min":[-0.09375,-0.0625,-0.09375],"type":"VEC3"},{"bufferView":37,"componentType":5126,"count":16,"max":[0.9578262567520142,0.2873478829860687,0.9578262567520142],"min":[-0.9578262567520142,-1,-0.9578262567520142],"type":"VEC3"},{"bufferView":38,"componentType":5126,"count":16,"max":[0.390625,0.921875],"min":[0.3359375,0.86328125],"type":"VEC2"},{"bufferView":39,"componentType":5123,"count":18,"max":[15],"min":[0],"type":"SCALAR"},{"bufferView":40,"componentType":5126,"count":24,"max":[0.25,0.1875,-0.25],"min":[0.1875,0,-0.3125],"type":"VEC3"},{"bufferView":41,"componentType":5126,"count":24,"max":[1,1,1],"min":[-1,-1,-1],"type":"VEC3"},{"bufferView":42,"componentType":5126,"count":24,"max":[0.33984375,0.71875],"min":[0.322265625,0.6875],"type":"VEC2"},{"bufferView":43,"componentType":5123,"count":36,"max":[23],"min":[0],"type":"SCALAR"},{"bufferView":44,"componentType":5126,"count":16,"max":[0.09375,0.25,0.09375],"min":[-0.09375,-0.0625,-0.09375],"type":"VEC3"},{"bufferView":45,"componentType":5126,"count":16,"max":[0.9578262567520142,0.2873478829860687,0.9578262567520142],"min":[-0.9578262567520142,-1,-0.9578262567520142],"type":"VEC3"},{"bufferView":46,"componentType":5126,"count":16,"max":[0.390625,0.921875],"min":[0.3359375,0.86328125],"type":"VEC2"},{"bufferView":47,"componentType":5123,"count":18,"max":[15],"min":[0],"type":"SCALAR"},{"bufferView":48,"componentType":5126,"count":24,"max":[0.25,0.1875,-0.25],"min":[0.1875,0,-0.3125],"type":"VEC3"},{"bufferView":49,"componentType":5126,"count":24,"max":[1,1,1],"min":[-1,-1,-1],"type":"VEC3"},{"bufferView":50,"componentType":5126,"count":24,"max":[0.33984375,0.71875],"min":[0.322265625,0.6875],"type":"VEC2"},{"bufferView":51,"componentType":5123,"count":36,"max":[23],"min":[0],"type":"SCALAR"},{"bufferView":52,"componentType":5126,"count":16,"max":[0.09375,0.25,0.09375],"min":[-0.09375,-0.0625,-0.09375],"type":"VEC3"},{"bufferView":53,"componentType":5126,"count":16,"max":[0.9578262567520142,0.2873478829860687,0.9578262567520142],"min":[-0.9578262567520142,-1,-0.9578262567520142],"type":"VEC3"},{"bufferView":54,"componentType":5126,"count":16,"max":[0.390625,0.921875],"min":[0.3359375,0.86328125],"type":"VEC2"},{"bufferView":55,"componentType":5123,"count":18,"max":[15],"min":[0],"type":"SCALAR"},{"bufferView":56,"componentType":5126,"count":24,"max":[0.25,0.1875,-0.25],"min":[0.1875,0,-0.3125],"type":"VEC3"},{"bufferView":57,"componentType":5126,"count":24,"max":[1,1,1],"min":[-1,-1,-1],"type":"VEC3"},{"bufferView":58,"componentType":5126,"count":24,"max":[0.33984375,0.71875],"min":[0.322265625,0.6875],"type":"VEC2"},{"bufferView":59,"componentType":5123,"count":36,"max":[23],"min":[0],"type":"SCALAR"},{"bufferView":60,"componentType":5126,"count":16,"max":[0.09375,0.25,0.09375],"min":[-0.09375,-0.0625,-0.09375],"type":"VEC3"},{"bufferView":61,"componentType":5126,"count":16,"max":[0.9578262567520142,0.2873478829860687,0.9578262567520142],"min":[-0.9578262567520142,-1,-0.9578262567520142],"type":"VEC3"},{"bufferView":62,"componentType":5126,"count":16,"max":[0.390625,0.921875],"min":[0.3359375,0.86328125],"type":"VEC2"},{"bufferView":63,"componentType":5123,"count":18,"max":[15],"min":[0],"type":"SCALAR"},{"bufferView":64,"componentType":5126,"count":24,"max":[0.25,0.1875,-0.25],"min":[0.1875,0,-0.3125],"type":"VEC3"},{"bufferView":65,"componentType":5126,"count":24,"max":[1,1,1],"min":[-1,-1,-1],"type":"VEC3"},{"bufferView":66,"componentType":5126,"count":24,"max":[0.33984375,0.71875],"min":[0.322265625,0.6875],"type":"VEC2"},{"bufferView":67,"componentType":5123,"count":36,"max":[23],"min":[0],"type":"SCALAR"},{"bufferView":68,"componentType":5126,"count":16,"max":[0.09375,0.25,0.09375],"min":[-0.09375,-0.0625,-0.09375],"type":"VEC3"},{"bufferView":69,"componentType":5126,"count":16,"max":[0.9578262567520142,0.2873478829860687,0.9578262567520142],"min":[-0.9578262567520142,-1,-0.9578262567520142],"type":"VEC3"},{"bufferView":70,"componentType":5126,"count":16,"max":[0.390625,0.921875],"min":[0.3359375,0.86328125],"type":"VEC2"},{"bufferView":71,"componentType":5123,"count":18,"max":[15],"min":[0],"type":"SCALAR"},{"bufferView":72,"componentType":5126,"count":24,"max":[0.25,0.1875,-0.25],"min":[0.1875,0,-0.3125],"type":"VEC3"},{"bufferView":73,"componentType":5126,"count":24,"max":[1,1,1],"min":[-1,-1,-1],"type":"VEC3"},{"bufferView":74,"componentType":5126,"count":24,"max":[0.33984375,0.71875],"min":[0.322265625,0.6875],"type":"VEC2"},{"bufferView":75,"componentType":5123,"count":36,"max":[23],"min":[0],"type":"SCALAR"},{"bufferView":76,"componentType":5126,"count":16,"max":[0.09375,0.25,0.09375],"min":[-0.09375,-0.0625,-0.09375],"type":"VEC3"},{"bufferView":77,"componentType":5126,"count":16,"max":[0.9578262567520142,0.2873478829860687,0.9578262567520142],"min":[-0.9578262567520142,-1,-0.9578262567520142],"type":"VEC3"},{"bufferView":78,"componentType":5126,"count":16,"max":[0.390625,0.921875],"min":[0.3359375,0.86328125],"type":"VEC2"},{"bufferView":79,"componentType":5123,"count":18,"max":[15],"min":[0],"type":"SCALAR"},{"bufferView":80,"componentType":5126,"count":24,"max":[0.25,0.1875,-0.25],"min":[0.1875,0,-0.3125],"type":"VEC3"},{"bufferView":81,"componentType":5126,"count":24,"max":[1,1,1],"min":[-1,-1,-1],"type":"VEC3"},{"bufferView":82,"componentType":5126,"count":24,"max":[0.33984375,0.71875],"min":[0.322265625,0.6875],"type":"VEC2"},{"bufferView":83,"componentType":5123,"count":36,"max":[23],"min":[0],"type":"SCALAR"},{"bufferView":84,"componentType":5126,"count":16,"max":[0.09375,0.25,0.09375],"min":[-0.09375,-0.0625,-0.09375],"type":"VEC3"},{"bufferView":85,"componentType":5126,"count":16,"max":[0.9578262567520142,0.2873478829860687,0.9578262567520142],"min":[-0.9578262567520142,-1,-0.9578262567520142],"type":"VEC3"},{"bufferView":86,"componentType":5126,"count":16,"max":[0.390625,0.921875],"min":[0.3359375,0.86328125],"type":"VEC2"},{"bufferView":87,"componentType":5123,"count":18,"max":[15],"min":[0],"type":"SCALAR"},{"bufferView":88,"componentType":5126,"count":4,"max":[2,0,0],"min":[0,0,-2],"type":"VEC3"},{"bufferView":89,"componentType":5126,"count":4,"max":[0,1,0],"min":[0,1,0],"type":"VEC3"},{"bufferView":90,"componentType":5126,"count":4,"max":[0.25,1],"min":[0,0.75],"type":"VEC2"},{"bufferView":91,"componentType":5123,"count":6,"max":[3],"min":[0],"type":"SCALAR"}],"materials":[{"pbrMetallicRoughness":{"metallicFactor":0,"roughnessFactor":1,"baseColorTexture":{"index":0}},"alphaMode":"MASK","alphaCutoff":0.05,"doubleSided":true}],"textures":[{"sampler":0,"source":0,"name":"cafe"}],"samplers":[{"magFilter":9728,"minFilter":9728,"wrapS":33071,"wrapT":33071}],"images":[{"mimeType":"image/png","uri":"data:image/png;base64,"}],"meshes":[{"primitives":[{"mode":4,"attributes":{"POSITION":0,"NORMAL":1,"TEXCOORD_0":2},"indices":3,"material":0}]},{"primitives":[{"mode":4,"attributes":{"POSITION":4,"NORMAL":5,"TEXCOORD_0":6},"indices":7,"material":0}]},{"primitives":[{"mode":4,"attributes":{"POSITION":8,"NORMAL":9,"TEXCOORD_0":10},"indices":11,"material":0}]},{"primitives":[{"mode":4,"attributes":{"POSITION":12,"NORMAL":13,"TEXCOORD_0":14},"indices":15,"material":0}]},{"primitives":[{"mode":4,"attributes":{"POSITION":16,"NORMAL":17,"TEXCOORD_0":18},"indices":19,"material":0}]},{"primitives":[{"mode":4,"attributes":{"POSITION":20,"NORMAL":21,"TEXCOORD_0":22},"indices":23,"material":0}]},{"primitives":[{"mode":4,"attributes":{"POSITION":24,"NORMAL":25,"TEXCOORD_0":26},"indices":27,"material":0}]},{"primitives":[{"mode":4,"attributes":{"POSITION":28,"NORMAL":29,"TEXCOORD_0":30},"indices":31,"material":0}]},{"primitives":[{"mode":4,"attributes":{"POSITION":32,"NORMAL":33,"TEXCOORD_0":34},"indices":35,"material":0}]},{"primitives":[{"mode":4,"attributes":{"POSITION":36,"NORMAL":37,"TEXCOORD_0":38},"indices":39,"material":0}]},{"primitives":[{"mode":4,"attributes":{"POSITION":40,"NORMAL":41,"TEXCOORD_0":42},"indices":43,"material":0}]},{"primitives":[{"mode":4,"attributes":{"POSITION":44,"NORMAL":45,"TEXCOORD_0":46},"indices":47,"material":0}]},{"primitives":[{"mode":4,"attributes":{"POSITION":48,"NORMAL":49,"TEXCOORD_0":50},"indices":51,"material":0}]},{"primitives":[{"mode":4,"attributes":{"POSITION":52,"NORMAL":53,"TEXCOORD_0":54},"indices":55,"material":0}]},{"primitives":[{"mode":4,"attributes":{"POSITION":56,"NORMAL":57,"TEXCOORD_0":58},"indices":59,"material":0}]},{"primitives":[{"mode":4,"attributes":{"POSITION":60,"NORMAL":61,"TEXCOORD_0":62},"indices":63,"material":0}]},{"primitives":[{"mode":4,"attributes":{"POSITION":64,"NORMAL":65,"TEXCOORD_0":66},"indices":67,"material":0}]},{"primitives":[{"mode":4,"attributes":{"POSITION":68,"NORMAL":69,"TEXCOORD_0":70},"indices":71,"material":0}]},{"primitives":[{"mode":4,"attributes":{"POSITION":72,"NORMAL":73,"TEXCOORD_0":74},"indices":75,"material":0}]},{"primitives":[{"mode":4,"attributes":{"POSITION":76,"NORMAL":77,"TEXCOORD_0":78},"indices":79,"material":0}]},{"primitives":[{"mode":4,"attributes":{"POSITION":80,"NORMAL":81,"TEXCOORD_0":82},"indices":83,"material":0}]},{"primitives":[{"mode":4,"attributes":{"POSITION":84,"NORMAL":85,"TEXCOORD_0":86},"indices":87,"material":0}]},{"primitives":[{"mode":4,"attributes":{"POSITION":88,"NORMAL":89,"TEXCOORD_0":90},"indices":91,"material":0}]}]}